<svg width="36" height="36" viewBox="0 0 36 36" fill="none" xmlns="http://www.w3.org/2000/svg">
<g filter="url(#filter0_d_1037_3053)">
<path d="M18 3C12.48 3 8 7.48 8 13C8 19.88 18 31 18 31C18 31 28 19.88 28 13C28 7.48 23.52 3 18 3Z" fill="hsl(var(--primary))"/>
<path d="M18 3C12.48 3 8 7.48 8 13C8 19.88 18 31 18 31C18 31 28 19.88 28 13C28 7.48 23.52 3 18 3Z" stroke="white" stroke-width="2"/>
</g>
<circle cx="18" cy="13" r="4" fill="white"/>
<defs>
<filter id="filter0_d_1037_3053" x="0" y="0" width="36" height="39" filterUnits="userSpaceOnUse" color-interpolation-filters="sRGB">
<feFlood flood-opacity="0" result="BackgroundImageFix"/>
<feColorMatrix in="SourceAlpha" type="matrix" values="0 0 0 0 0 0 0 0 0 0 0 0 0 0 0 0 0 0 127 0" result="hardAlpha"/>
<feOffset dy="2"/>
<feGaussianBlur stdDeviation="4"/>
<feComposite in2="hardAlpha" operator="out"/>
<feColorMatrix type="matrix" values="0 0 0 0 0 0 0 0 0 0 0 0 0 0 0 0 0 0 0.1 0"/>
<feBlend mode="normal" in2="BackgroundImageFix" result="effect1_dropShadow_1037_3053"/>
<feBlend mode="normal" in="SourceGraphic" in2="effect1_dropShadow_1037_3053" result="shape"/>
</filter>
</defs>
</svg>
